# xmcd
#
# Track frame offsets: 
#        150
#        13221
#        33311
#        48391
#        65371
#        80952
#        99014
#        114122
#        128973
#        142025
#        162587
#        177583
#
# Disc length: 2769 seconds
#
# Revision: 0
# Processed by: cddbd v1.5.2PL0 Copyright (c) Steve Scherf et al.
# Submitted via: ExactAudioCopy v0.95a5
#
DISCID=a40acf0c
DTITLE=Pat O'Brien And The Priests Of Love - On A Mission
DYEAR=1996
DGENRE=Blues
TTITLE0=The Cabin Jump
TTITLE1=You Do It Well
TTITLE2=The Blues Doctor
TTITLE3=A Good Fool Is Hard To Find
TTITLE4=Jimmy's Got His Brushes
TTITLE5=I Wanna Know
TTITLE6=Empty Suit
TTITLE7=Little Getaway
TTITLE8=The Rebel
TTITLE9=Come On Over
TTITLE10=True Detective
TTITLE11=The Sky Is Crying
EXTD=
EXTT0=
EXTT1=
EXTT2=
EXTT3=
EXTT4=
EXTT5=
EXTT6=
EXTT7=
EXTT8=
EXTT9=
EXTT10=
EXTT11=
PLAYORDER=
